<?xml version="1.0" standalone="no"?>
<!DOCTYPE svg PUBLIC "-//W3C//DTD SVG 20010904//EN"
 "http://www.w3.org/TR/2001/REC-SVG-20010904/DTD/svg10.dtd">
<svg version="1.0" xmlns="http://www.w3.org/2000/svg"
 width="353.000000pt" height="131.000000pt" viewBox="0 0 353.000000 131.000000"
 preserveAspectRatio="xMidYMid meet">

<g transform="translate(0.000000,131.000000) scale(0.100000,-0.100000)"
fill="#000000" stroke="none">
<path d="M280 915 c0 -148 1 -155 20 -155 19 0 20 7 20 155 0 148 -1 155 -20
155 -19 0 -20 -7 -20 -155z"/>
<path d="M1760 915 c0 -148 1 -155 20 -155 18 0 20 7 20 60 l0 60 49 0 c104 0
152 45 130 123 -13 48 -56 67 -148 67 l-71 0 0 -155z m150 112 c20 -10 25 -20
25 -52 0 -47 -25 -65 -92 -65 l-43 0 0 65 0 65 43 0 c23 0 53 -6 67 -13z"/>
<path d="M3190 1005 c0 -24 -5 -35 -15 -35 -8 0 -15 -7 -15 -15 0 -8 7 -15 15
-15 12 0 15 -15 15 -73 0 -59 4 -77 18 -90 24 -22 92 -23 92 -2 0 10 -10 15
-30 15 -35 0 -43 20 -38 96 3 45 5 49 31 52 38 5 36 32 -3 32 -28 0 -30 3 -30
35 0 28 -4 35 -20 35 -16 0 -20 -7 -20 -35z"/>
<path d="M380 865 c0 -98 1 -105 20 -105 18 0 20 7 20 74 0 66 3 77 22 90 31
22 65 20 78 -3 5 -11 10 -51 10 -90 0 -64 2 -71 20 -71 17 0 19 8 22 82 3 80
4 83 31 92 49 18 62 0 65 -93 3 -73 5 -81 22 -81 18 0 20 7 20 83 0 102 -14
127 -68 127 -21 0 -47 -7 -59 -15 -18 -13 -22 -13 -33 0 -16 20 -80 19 -108
-1 -20 -14 -22 -14 -22 0 0 9 -9 16 -20 16 -19 0 -20 -7 -20 -105z"/>
<path d="M797 963 c-19 -19 -4 -28 43 -25 50 4 80 -8 80 -32 0 -9 -18 -11 -59
-8 -51 4 -61 1 -80 -19 -27 -29 -27 -59 0 -93 16 -20 29 -26 60 -26 22 0 50 5
62 11 16 9 22 9 25 0 2 -6 12 -11 23 -11 17 0 19 8 19 64 0 73 -14 122 -40
136 -21 11 -123 14 -133 3z m107 -99 c22 -9 20 -51 -3 -64 -55 -29 -116 4 -91
50 11 20 59 27 94 14z"/>
<path d="M1049 941 c-24 -24 -29 -38 -29 -76 0 -38 5 -52 29 -76 25 -24 38
-29 78 -29 28 0 58 7 71 16 21 14 22 14 22 -9 0 -13 -10 -37 -22 -52 -20 -25
-25 -27 -80 -23 -49 4 -58 2 -56 -11 3 -13 18 -16 75 -16 62 0 76 3 95 23 21
21 23 33 26 152 3 126 3 130 -17 130 -13 0 -21 -6 -21 -16 0 -15 -2 -15 -25 0
-13 9 -45 16 -70 16 -38 0 -52 -5 -76 -29z m146 -26 c34 -33 33 -77 -1 -104
-55 -43 -134 -12 -134 53 0 69 85 102 135 51z"/>
<path d="M1361 956 c-70 -39 -65 -155 7 -185 42 -18 146 -11 150 10 3 14 -4
16 -42 12 -25 -3 -56 -3 -70 1 -26 6 -56 31 -56 47 0 5 43 9 95 9 l95 0 0 31
c0 20 -10 40 -29 60 -25 24 -37 29 -78 29 -26 -1 -59 -7 -72 -14z m117 -32
c44 -31 28 -44 -53 -44 -79 0 -88 7 -55 40 24 24 77 26 108 4z"/>
<path d="M2030 865 c0 -98 1 -105 20 -105 17 0 19 8 22 73 l3 72 43 20 c48 22
59 51 15 40 -16 -3 -36 -14 -45 -22 -17 -15 -18 -14 -18 5 0 15 -6 22 -20 22
-19 0 -20 -7 -20 -105z"/>
<path d="M2248 954 c-35 -19 -48 -43 -48 -93 0 -63 32 -93 107 -99 56 -4 63
-2 94 26 29 26 34 37 34 77 0 40 -5 51 -33 76 -26 24 -41 29 -80 29 -26 -1
-59 -7 -74 -16z m120 -30 c32 -22 32 -96 0 -118 -52 -37 -128 -3 -128 58 0 63
74 98 128 60z"/>
<path d="M2490 865 c0 -98 1 -105 20 -105 18 0 20 7 20 68 0 79 21 112 69 112
36 0 41 -13 41 -106 0 -67 2 -74 20 -74 18 0 20 7 20 80 0 88 12 105 68 98 27
-3 27 -4 30 -90 3 -80 5 -88 22 -88 18 0 20 7 20 89 0 68 -4 93 -16 105 -20
20 -83 21 -111 1 -18 -13 -22 -13 -33 0 -16 20 -84 19 -100 0 -7 -8 -16 -15
-21 -15 -5 0 -9 7 -9 15 0 8 -9 15 -20 15 -19 0 -20 -7 -20 -105z"/>
<path d="M2880 815 c0 -148 1 -155 20 -155 18 0 20 7 20 66 l0 65 22 -15 c13
-9 43 -16 71 -16 40 0 53 5 78 29 24 24 29 38 29 76 0 38 -5 52 -29 76 -34 34
-92 39 -141 14 -27 -14 -30 -14 -30 0 0 8 -9 15 -20 15 -19 0 -20 -7 -20 -155z
m177 103 c31 -29 30 -72 -2 -103 -48 -49 -135 -17 -135 50 0 65 88 99 137 53z"/>
</g>
</svg>
